# xmcd
# 
# Track frame offsets:
#     150
#     12827
#     28305
#     44525
#     60552
#     75825
#     92570
#     118735
#     136227
#     151462
#     168270
#     187910
#     207152
# 
# Disc length: 3081
# 
# Revision: 0
# Processed by: cddbd v1.5.2PL0 Copyright (c) Steve Scherf et al.
# Submitted via: BonkEnc v1.0.6
# 
DISCID=9e0c070d
DTITLE=Barenaked Ladies - Stunt
DYEAR=1998
DGENRE=Alternative Pop
TTITLE0=One Week
TTITLE1=It's All Been Done
TTITLE2=Light Up My Room
TTITLE3=I'll Be That Girl
TTITLE4=Leave
TTITLE5=Alcohol
TTITLE6=Call And Answer
TTITLE7=In The Car
TTITLE8=Never Is Enough
TTITLE9=Who Needs Sleep?
TTITLE10=Told You So
TTITLE11=Some Fantastic
TTITLE12=When You Dream
EXTD=
EXTT0=
EXTT1=
EXTT2=
EXTT3=
EXTT4=
EXTT5=
EXTT6=
EXTT7=
EXTT8=
EXTT9=
EXTT10=
EXTT11=
EXTT12=
PLAYORDER=
